# xmcd
#
# Track frame offsets:
#	150
#	9387
#	24274
#	32786
#	45699
#	57464
#	73539
#	88098
#	100600
#	114407
#	126980
#	140053
#	158873
#	171452
#	179679
#	190482
#	201799
#	216149
#	224430
#
# Disc length: 3222 seconds
#
# Revision: 0
# Processed by: cddbd v1.5.2PL0 Copyright (c) Steve Scherf et al.
# Submitted via: EasyCDDAExtractor 16.1.0.1
#
DISCID=1e0c9413
DTITLE=Kollárovci 1 - Z Kolačkova parobci 1
DYEAR=2006
DGENRE=
TTITLE0=Z Kolačkova parobci
TTITLE1=A jo hlopiec
TTITLE2=Ani ja tu nemam
TTITLE3=Keď som išiel okolo vás
TTITLE4=Idzem po valale
TTITLE5=Prečo si ma vyvolala
TTITLE6=A jaka to šumna ruža
TTITLE7=Zagraj mi čorni cigane
TTITLE8=Mamko moja ja še vám už vydama
TTITLE9=Ucekaj Janičku
TTITLE10=Išol Kohut z Ameriky - Moja mila na mašine šila
TTITLE11=Ked jo pudem - Tam doguri na dembie
TTITLE12=Na Vojtovej roli
TTITLE13=A tam pri Poproďe
TTITLE14=Jak ja išol z Kanady
TTITLE15=Oči, oči, čierne oči
TTITLE16=Starý Olahský tanec /inštr. - solo klarinet/
TTITLE17=Včielka Maja - autor hudby Karel Richard Svoboda /
TTITLE18=Nádeje, nádeje
EXTD=
EXTT0=
EXTT1=
EXTT2=
EXTT3=
EXTT4=
EXTT5=
EXTT6=
EXTT7=
EXTT8=
EXTT9=
EXTT10=
EXTT11=
EXTT12=
EXTT13=
EXTT14=
EXTT15=
EXTT16=
EXTT17=
EXTT18=
PLAYORDER=
